<svg width="900" height="480" viewBox="0 0 900 480" xmlns="http://www.w3.org/2000/svg">
  <defs>
    <linearGradient id="termBg" x1="0%" y1="0%" x2="100%" y2="100%">
      <stop offset="0%" stop-color="#050B14"/>
      <stop offset="100%" stop-color="#0A121F"/>
    </linearGradient>
    <style>
      .mono { font-family: 'Consolas', 'Courier New', monospace; }
      .label { fill: #38BDF8; }
      .val   { fill: #E2E8F0; }
      .head  { fill: #A78BFA; }
      .dim   { fill: #475569; }
    </style>
  </defs>

  <!-- Terminal window -->
  <rect x="4" y="4" width="892" height="472" rx="14" fill="url(#termBg)" stroke="#1E293B" stroke-width="1.5"/>

  <!-- Title bar -->
  <circle cx="30" cy="28" r="6" fill="#FF5F56"/>
  <circle cx="52" cy="28" r="6" fill="#FFBD2E"/>
  <circle cx="74" cy="28" r="6" fill="#27C93F"/>
  <text x="450" y="33" text-anchor="middle" class="mono dim" font-size="13">vivek@devbox ~ % ./profile.sh --live</text>
  <circle cx="850" cy="28" r="4" fill="#F87171"/>
  <text x="862" y="33" class="mono" font-size="11" fill="#F87171">LIVE</text>
  <line x1="4" y1="50" x2="896" y2="50" stroke="#1E293B" stroke-width="1"/>

  <!-- Left: neural network graphic -->
  <text x="40" y="80" class="mono dim" font-size="13" letter-spacing="1">VISUAL.NET</text>
  <g stroke="#1D4ED8" stroke-width="1" opacity="0.55">
    <line x1="90" y1="130" x2="200" y2="110"/>
    <line x1="90" y1="130" x2="200" y2="170"/>
    <line x1="90" y1="130" x2="200" y2="230"/>
    <line x1="90" y1="190" x2="200" y2="110"/>
    <line x1="90" y1="190" x2="200" y2="170"/>
    <line x1="90" y1="190" x2="200" y2="230"/>
    <line x1="90" y1="250" x2="200" y2="170"/>
    <line x1="90" y1="250" x2="200" y2="230"/>
    <line x1="90" y1="250" x2="200" y2="290"/>
    <line x1="200" y1="110" x2="310" y2="150"/>
    <line x1="200" y1="170" x2="310" y2="150"/>
    <line x1="200" y1="170" x2="310" y2="230"/>
    <line x1="200" y1="230" x2="310" y2="150"/>
    <line x1="200" y1="230" x2="310" y2="230"/>
    <line x1="200" y1="290" x2="310" y2="230"/>
    <line x1="310" y1="150" x2="380" y2="190"/>
    <line x1="310" y1="230" x2="380" y2="190"/>
  </g>
  <g fill="#38BDF8">
    <circle cx="90" cy="130" r="5"/>
    <circle cx="90" cy="190" r="5"/>
    <circle cx="90" cy="250" r="5"/>
  </g>
  <g fill="#818CF8">
    <circle cx="200" cy="110" r="5"/>
    <circle cx="200" cy="170" r="5"/>
    <circle cx="200" cy="230" r="5"/>
    <circle cx="200" cy="290" r="5"/>
  </g>
  <g fill="#A78BFA">
    <circle cx="310" cy="150" r="5"/>
    <circle cx="310" cy="230" r="5"/>
  </g>
  <circle cx="380" cy="190" r="7" fill="#F472B6"/>

  <text x="40" y="340" class="mono dim" font-size="12">[ input layer ]  [ hidden ]  [ hidden ]  [ output ]</text>
  <text x="40" y="365" class="mono" font-size="12" fill="#38BDF8">status: training complete &#8226; accuracy 98.4%</text>

  <rect x="40" y="390" width="360" height="1" fill="#1E293B"/>
  <text x="40" y="420" class="mono dim" font-size="12">$ echo "Always learning, always building."</text>
  <text x="40" y="440" class="mono" font-size="12" fill="#4ADE80">&gt; process running...</text>

  <line x1="430" y1="60" x2="430" y2="470" stroke="#1E293B" stroke-width="1"/>

  <!-- Right: system info -->
  <text x="455" y="80" class="mono dim" font-size="13" letter-spacing="1">SYSTEM.INFO</text>
  <text x="455" y="105" class="mono head" font-size="19" font-weight="700">vivek@thatvivekhingu</text>
  <line x1="455" y1="115" x2="875" y2="115" stroke="#1E293B" stroke-width="1"/>

  <g class="mono" font-size="13.5">
    <text x="455" y="142"><tspan class="label" font-weight="700">Subject</tspan><tspan class="dim">: ..........................</tspan><tspan class="val" dx="4">Vivek Hingu</tspan></text>
    <text x="455" y="165"><tspan class="label" font-weight="700">Role</tspan><tspan class="dim">: ..............................</tspan><tspan class="val" dx="4">AI/ML Engineer</tspan></text>
    <text x="455" y="188"><tspan class="label" font-weight="700">Origin</tspan><tspan class="dim">: ............................</tspan><tspan class="val" dx="4">Gujarat, India</tspan></text>
    <text x="455" y="211"><tspan class="label" font-weight="700">Education</tspan><tspan class="dim">: .......................</tspan><tspan class="val" dx="4">B.Tech IT &#8226; AI/ML focus</tspan></text>
    <text x="455" y="234"><tspan class="label" font-weight="700">Status</tspan><tspan class="dim">: ...............</tspan><tspan class="val" dx="4">Learning &#8226; Building &#8226; Shipping</tspan></text>
    <text x="455" y="257"><tspan class="label" font-weight="700">ToolChain</tspan><tspan class="dim">: .......................</tspan><tspan class="val" dx="4">VS Code, Git, Jupyter, Docker</tspan></text>

    <text x="455" y="288"><tspan class="label" font-weight="700">Core.Lang</tspan><tspan class="dim">: ......</tspan><tspan class="val" dx="4">Python, Java, JavaScript</tspan></text>
    <text x="455" y="311"><tspan class="label" font-weight="700">Core.ML</tspan><tspan class="dim">: .........</tspan><tspan class="val" dx="4">TensorFlow, PyTorch, scikit-learn</tspan></text>
    <text x="455" y="334"><tspan class="label" font-weight="700">Core.Data</tspan><tspan class="dim">: ......</tspan><tspan class="val" dx="4">NumPy, Pandas, Matplotlib, Seaborn</tspan></text>

    <line x1="455" y1="352" x2="875" y2="352" stroke="#1E293B" stroke-width="1"/>
    <text x="455" y="373" class="head" font-weight="700">- Contact</text>
    <text x="455" y="396"><tspan class="label" font-weight="700">Grid.Mail</tspan><tspan class="dim">: .......................</tspan><tspan class="val" dx="4">hinguvivek05@gmail.com</tspan></text>
    <text x="455" y="419"><tspan class="label" font-weight="700">Grid.LinkedIn</tspan><tspan class="dim">: ...............</tspan><tspan class="val" dx="4">vivek-hingu-16b6a92a6</tspan></text>
    <text x="455" y="442"><tspan class="label" font-weight="700">Grid.LeetCode</tspan><tspan class="dim">: ...............</tspan><tspan class="val" dx="4">thatvivekhingu</tspan></text>
    <text x="455" y="465"><tspan class="label" font-weight="700">Grid.Github</tspan><tspan class="dim">: .................</tspan><tspan class="val" dx="4">thatvivekhingu</tspan></text>
  </g>
</svg>
